{
  "accessors": [
    {
      "bufferView": 2,
      "componentType": 5126,
      "count": 27849,
      "max": [
        -709.9503173828125,
        -575.393798828125,
        126.52780151367188
      ],
      "min": [
        -1896.3289794921875,
        -952.6810913085938,
        -390.11859130859375
      ],
      "type": "VEC3"
    },
    {
      "bufferView": 2,
      "byteOffset": 334188,
      "componentType": 5126,
      "count": 27849,
      "max": [
        1.0,
        0.9999657273292542,
        0.9999697208404541
      ],
      "min": [
        -1.0,
        -0.9998567700386047,
        -0.9999915957450867
      ],
      "type": "VEC3"
    },
    {
      "bufferView": 1,
      "componentType": 5126,
      "count": 27849,
      "max": [
        0.9994999766349792,
        0.9994999766349792
      ],
      "min": [
        0.0005000000237487257,
        0.03269999846816063
      ],
      "type": "VEC2"
    },
    {
      "bufferView": 0,
      "componentType": 5125,
      "count": 155676,
      "type": "SCALAR"
    },
    {
      "bufferView": 2,
      "byteOffset": 668376,
      "componentType": 5126,
      "count": 5698,
      "max": [
        -831.7017211914063,
        -688.9686889648438,
        -80.00559997558594
      ],
      "min": [
        -866.6165161132813,
        -726.783203125,
        -166.47329711914063
      ],
      "type": "VEC3"
    },
    {
      "bufferView": 2,
      "byteOffset": 736752,
      "componentType": 5126,
      "count": 5698,
      "max": [
        0.999428391456604,
        0.9999467730522156,
        0.9560332894325256
      ],
      "min": [
        -0.999592661857605,
        -0.6808761954307556,
        -0.9996145963668823
      ],
      "type": "VEC3"
    },
    {
      "bufferView": 1,
      "byteOffset": 222792,
      "componentType": 5126,
      "count": 5698,
      "max": [
        0.9980000257492065,
        0.9980000257492065
      ],
      "min": [
        0.002099999925121665,
        0.0020000000949949026
      ],
      "type": "VEC2"
    },
    {
      "bufferView": 0,
      "byteOffset": 622704,
      "componentType": 5125,
      "count": 33792,
      "type": "SCALAR"
    }
  ],
  "asset": {
    "extras": {
      "author": "stupidboy34 (https://sketchfab.com/stupidboy34)",
      "license": "CC-BY-4.0 (http://creativecommons.org/licenses/by/4.0/)",
      "source": "https://sketchfab.com/3d-models/girl3-31ced030853b4705b81d82d07e7eaeed",
      "title": "Girl3"
    },
    "generator": "Sketchfab-12.68.0",
    "version": "2.0"
  },
  "bufferViews": [
    {
      "buffer": 0,
      "byteLength": 757872,
      "name": "floatBufferViews",
      "target": 34963
    },
    {
      "buffer": 0,
      "byteLength": 268376,
      "byteOffset": 757872,
      "byteStride": 8,
      "name": "floatBufferViews",
      "target": 34962
    },
    {
      "buffer": 0,
      "byteLength": 805128,
      "byteOffset": 1026248,
      "byteStride": 12,
      "name": "floatBufferViews",
      "target": 34962
    }
  ],
  "buffers": [
    {
      "byteLength": 1831376,
      "uri": "scene.bin"
    }
  ],
  "images": [
    {
      "uri": "textures/Material__84_baseColor.jpeg"
    },
    {
      "uri": "textures/Material__86_baseColor.jpeg"
    }
  ],
  "materials": [
    {
      "doubleSided": true,
      "emissiveTexture": {
        "index": 0
      },
      "name": "Material__84",
      "pbrMetallicRoughness": {
        "baseColorTexture": {
          "index": 0
        },
        "metallicFactor": 0.0,
        "roughnessFactor": 0.6
      }
    },
    {
      "doubleSided": true,
      "emissiveTexture": {
        "index": 1
      },
      "name": "Material__86",
      "pbrMetallicRoughness": {
        "baseColorTexture": {
          "index": 1
        },
        "metallicFactor": 0.0,
        "roughnessFactor": 0.6
      }
    }
  ],
  "meshes": [
    {
      "name": "Object_0",
      "primitives": [
        {
          "attributes": {
            "NORMAL": 1,
            "POSITION": 0,
            "TEXCOORD_0": 2
          },
          "indices": 3,
          "material": 0,
          "mode": 4
        }
      ]
    },
    {
      "name": "Object_1",
      "primitives": [
        {
          "attributes": {
            "NORMAL": 5,
            "POSITION": 4,
            "TEXCOORD_0": 6
          },
          "indices": 7,
          "material": 1,
          "mode": 4
        }
      ]
    }
  ],
  "nodes": [
    {
      "children": [
        1
      ],
      "matrix": [
        0.0,
        1.0,
        2.220446049250313e-16,
        0.0,
        1.0,
        0.0,
        0.0,
        0.0,
        0.0,
        2.220446049250313e-16,
        -1.0,
        0.0,
        -539.1034545898438,
        1171.3453369140623,
        632.241882324219,
        1.0
      ],
      "name": "Sketchfab_model"
    },
    {
      "children": [
        2,
        3
      ],
      "name": "Girl3.obj.cleaner.gles"
    },
    {
      "mesh": 0,
      "name": "Object_2"
    },
    {
      "mesh": 1,
      "name": "Object_3"
    }
  ],
  "samplers": [
    {
      "magFilter": 9729,
      "minFilter": 9987,
      "wrapS": 10497,
      "wrapT": 10497
    }
  ],
  "scene": 0,
  "scenes": [
    {
      "name": "Sketchfab_Scene",
      "nodes": [
        0
      ]
    }
  ],
  "textures": [
    {
      "sampler": 0,
      "source": 0
    },
    {
      "sampler": 0,
      "source": 1
    }
  ]
}
