{
  "accessors": [
    {
      "bufferView": 2,
      "componentType": 5126,
      "count": 22978,
      "max": [
        0.397383451461792,
        0.036280710250139236,
        1.3304905891418457
      ],
      "min": [
        -0.4066186547279358,
        -0.05240907520055771,
        -0.9505008459091187
      ],
      "type": "VEC3"
    },
    {
      "bufferView": 2,
      "byteOffset": 275736,
      "componentType": 5126,
      "count": 22978,
      "max": [
        0.9999919533729553,
        1.0,
        0.9999972581863403
      ],
      "min": [
        -0.9999942779541016,
        -0.9999988079071045,
        -0.9999769926071167
      ],
      "type": "VEC3"
    },
    {
      "bufferView": 1,
      "componentType": 5126,
      "count": 22978,
      "max": [
        0.0,
        0.0
      ],
      "min": [
        0.0,
        0.0
      ],
      "type": "VEC2"
    },
    {
      "bufferView": 0,
      "componentType": 5125,
      "count": 137856,
      "type": "SCALAR"
    }
  ],
  "asset": {
    "extras": {
      "author": "sweedboy69 (https://sketchfab.com/sweedboy69)",
      "license": "CC-BY-4.0 (http://creativecommons.org/licenses/by/4.0/)",
      "source": "https://sketchfab.com/3d-models/scissors-6e0defc85edc4920a794fe9e82b5f16b",
      "title": "Scissors"
    },
    "generator": "Sketchfab-14.86.0",
    "version": "2.0"
  },
  "bufferViews": [
    {
      "buffer": 0,
      "byteLength": 551424,
      "name": "floatBufferViews",
      "target": 34963
    },
    {
      "buffer": 0,
      "byteLength": 183824,
      "byteOffset": 551424,
      "byteStride": 8,
      "name": "floatBufferViews",
      "target": 34962
    },
    {
      "buffer": 0,
      "byteLength": 551472,
      "byteOffset": 735248,
      "byteStride": 12,
      "name": "floatBufferViews",
      "target": 34962
    }
  ],
  "buffers": [
    {
      "byteLength": 1286720,
      "uri": "scene.bin"
    }
  ],
  "extensionsUsed": [
    "KHR_materials_specular"
  ],
  "materials": [
    {
      "doubleSided": true,
      "extensions": {
        "KHR_materials_specular": {
          "specularColorFactor": [
            1.0,
            1.0,
            1.0
          ],
          "specularFactor": 0.7969548097670393
        }
      },
      "name": "Scissors_Metal",
      "pbrMetallicRoughness": {
        "baseColorFactor": [
          0.396755,
          0.396755,
          0.396755,
          1.0
        ],
        "roughnessFactor": 0.2152357035754776
      }
    }
  ],
  "meshes": [
    {
      "name": "scissors_Scissors_Metal_0",
      "primitives": [
        {
          "attributes": {
            "NORMAL": 1,
            "POSITION": 0,
            "TEXCOORD_0": 2
          },
          "indices": 3,
          "material": 0,
          "mode": 4
        }
      ]
    }
  ],
  "nodes": [
    {
      "children": [
        1
      ],
      "matrix": [
        0.17274945974349976,
        0.0,
        0.0,
        0.0,
        0.0,
        3.8358085539758004e-17,
        -0.17274945974349976,
        0.0,
        0.0,
        0.17274945974349976,
        3.8358085539758004e-17,
        0.0,
        0.0,
        0.0,
        0.0,
        1.0
      ],
      "name": "Sketchfab_model"
    },
    {
      "children": [
        2
      ],
      "matrix": [
        0.009999999776482582,
        0.0,
        0.0,
        0.0,
        0.0,
        0.0,
        0.009999999776482582,
        0.0,
        0.0,
        -0.009999999776482582,
        0.0,
        0.0,
        0.0,
        0.0,
        0.0,
        1.0
      ],
      "name": "b7430e2363d744bd8b9a58e52680563b.fbx"
    },
    {
      "children": [
        3
      ],
      "name": "RootNode"
    },
    {
      "children": [
        4
      ],
      "matrix": [
        100.0,
        0.0,
        0.0,
        0.0,
        0.0,
        -1.629206793918314e-05,
        -99.99999999999868,
        0.0,
        0.0,
        99.99999999999868,
        -1.629206793918314e-05,
        0.0,
        0.04335392639040947,
        1.6367050409317017,
        -0.04691450297832489,
        1.0
      ],
      "name": "scissors"
    },
    {
      "mesh": 0,
      "name": "scissors_Scissors_Metal_0"
    }
  ],
  "scene": 0,
  "scenes": [
    {
      "name": "Sketchfab_Scene",
      "nodes": [
        0
      ]
    }
  ]
}
